<svg width="512" height="512" viewBox="0 0 512 512" fill="none" xmlns="http://www.w3.org/2000/svg">
<rect width="512" height="512" rx="64" fill="#3F51B5"/>
<path d="M399 151.157C416.673 151.157 431 165.484 431 183.157V363.157C431 380.83 416.673 395.157 399 395.157H113C95.327 395.157 81.0001 380.83 81 363.157V149.73C81 132.057 95.3269 117.73 113 117.73H225.262L257.398 151.157H399Z" fill="#03A9F4"/>
<path d="M202.622 361.661L163.004 361.81L162.879 361.685L163.027 322.063L278.908 206.185L318.504 245.781L202.622 361.661Z" fill="white"/>
<path d="M311.335 173.342C313.678 170.999 317.477 170.999 319.82 173.342L350.933 204.455C353.276 206.798 353.276 210.597 350.933 212.94L329.719 234.153L290.121 194.555L311.335 173.342Z" fill="white"/>
</svg>
