<svg width="418" height="512" viewBox="0 0 418 512" fill="none" xmlns="http://www.w3.org/2000/svg">
<path d="M246.008 0.000671387L418 171.993V448.001C418 483.347 389.346 512.001 354 512.001H64C28.6539 512.001 0.000197916 483.347 0 448.001V64.0007C0 28.6544 28.6538 0.000671387 64 0.000671387H246.008Z" fill="#C04075"/>
<path d="M418 172H310C274.654 172 246 143.346 246 108V0L418 172Z" fill="#E7B3C8"/>
<path d="M61.2031 370.946C61.2031 367.852 62.2344 365.274 64.2969 363.211C66.3594 361.102 69.1484 360.047 72.6641 360.047C76.1797 360.047 78.9688 361.102 81.0312 363.211C83.0938 365.274 84.125 367.852 84.125 370.946C84.125 374.039 83.0938 376.618 81.0312 378.68C78.9688 380.743 76.1797 381.774 72.6641 381.774C69.1484 381.774 66.3594 380.743 64.2969 378.68C62.2344 376.618 61.2031 374.039 61.2031 370.946ZM109.789 278.625H127.859L148.742 348.657L169.555 278.625H185.516L156.406 381H141.008L109.789 278.625ZM102.477 278.625H119.703L122.375 346.125V381H102.477V278.625ZM177.641 278.625H194.938V381H175.109V346.125L177.641 278.625ZM238.461 381H220.391L220.531 363.985H238.461C243.43 363.985 247.297 363.094 250.062 361.313C252.828 359.532 254.773 356.719 255.898 352.875C257.07 349.032 257.656 343.993 257.656 337.758V321.797C257.656 317.063 257.352 313.055 256.742 309.774C256.133 306.446 255.102 303.774 253.648 301.758C252.195 299.696 250.25 298.172 247.812 297.188C245.375 296.203 242.352 295.711 238.742 295.711H220.039V278.625H238.742C244.648 278.625 250.016 279.586 254.844 281.508C259.672 283.43 263.82 286.243 267.289 289.946C270.758 293.602 273.43 298.125 275.305 303.516C277.18 308.907 278.117 315.047 278.117 321.938V337.758C278.117 344.696 277.18 350.836 275.305 356.18C273.43 361.524 270.758 366.047 267.289 369.75C263.867 373.407 259.719 376.196 254.844 378.118C249.969 380.039 244.508 381 238.461 381ZM232.344 278.625V381H211.742V278.625H232.344ZM327.758 336.352H306.734L306.664 321.446H324.523C327.336 321.446 329.633 320.977 331.414 320.039C333.242 319.055 334.578 317.625 335.422 315.75C336.312 313.828 336.758 311.508 336.758 308.789C336.758 305.649 336.336 303.141 335.492 301.266C334.695 299.344 333.406 297.938 331.625 297.047C329.891 296.157 327.594 295.711 324.734 295.711H313.766V381H293.164V278.625H324.734C329.797 278.625 334.344 279.188 338.375 280.313C342.406 281.438 345.828 283.172 348.641 285.516C351.453 287.813 353.609 290.719 355.109 294.235C356.609 297.703 357.359 301.828 357.359 306.61C357.359 310.828 356.516 314.719 354.828 318.282C353.141 321.844 350.492 324.774 346.883 327.071C343.273 329.321 338.609 330.563 332.891 330.797L327.758 336.352ZM326.984 381H300.898L309.125 363.985H326.984C329.75 363.985 331.953 363.399 333.594 362.227C335.234 361.055 336.43 359.485 337.18 357.516C337.977 355.5 338.375 353.203 338.375 350.625C338.375 347.719 338.023 345.188 337.32 343.032C336.664 340.875 335.562 339.235 334.016 338.11C332.469 336.938 330.383 336.352 327.758 336.352H310.039L310.18 321.446H331.695L336.547 327.352C342.031 327.164 346.414 328.219 349.695 330.516C352.977 332.766 355.32 335.719 356.727 339.375C358.18 342.985 358.906 346.828 358.906 350.907C358.906 357.469 357.664 363 355.18 367.5C352.742 371.953 349.156 375.328 344.422 377.625C339.688 379.875 333.875 381 326.984 381Z" fill="white"/>
</svg>
