<svg width="512" height="512" viewBox="0 0 512 512" fill="none" xmlns="http://www.w3.org/2000/svg">
<rect width="512" height="512" rx="64" fill="#E5252A"/>
<path d="M132.689 277.881H97.1855V248.93H132.689C137.693 248.93 141.744 247.818 144.842 245.594C147.939 243.37 150.203 240.312 151.633 236.42C153.062 232.449 153.777 228.001 153.777 223.076C153.777 218.072 153.062 213.386 151.633 209.018C150.203 204.649 147.939 201.154 144.842 198.533C141.744 195.833 137.693 194.482 132.689 194.482H108.504V339H73.5957V165.531H132.689C144.365 165.531 154.373 167.993 162.713 172.918C171.132 177.842 177.605 184.633 182.133 193.291C186.66 201.869 188.924 211.718 188.924 222.838C188.924 234.037 186.66 243.767 182.133 252.027C177.605 260.208 171.132 266.562 162.713 271.09C154.373 275.617 144.365 277.881 132.689 277.881ZM257.549 339H226.93L227.168 310.168H257.549C265.968 310.168 272.521 308.659 277.207 305.641C281.893 302.622 285.189 297.857 287.096 291.344C289.081 284.831 290.074 276.292 290.074 265.729V238.684C290.074 230.661 289.558 223.87 288.525 218.311C287.493 212.671 285.745 208.144 283.283 204.729C280.821 201.234 277.525 198.652 273.395 196.984C269.264 195.316 264.141 194.482 258.025 194.482H226.334V165.531H258.025C268.033 165.531 277.128 167.16 285.309 170.416C293.49 173.673 300.519 178.438 306.396 184.713C312.274 190.908 316.801 198.573 319.979 207.707C323.156 216.841 324.744 227.246 324.744 238.922V265.729C324.744 277.484 323.156 287.889 319.979 296.943C316.801 305.998 312.274 313.663 306.396 319.938C300.598 326.133 293.569 330.859 285.309 334.115C277.048 337.372 267.795 339 257.549 339ZM247.184 165.531V339H212.275V165.531H247.184ZM385.148 165.531V339H350.24V165.531H385.148ZM439.477 239.279V268.111H376.332V239.279H439.477ZM446.148 165.531V194.482H376.332V165.531H446.148Z" fill="white"/>
</svg>
