<svg width="512" height="494" viewBox="0 0 512 494" fill="none" xmlns="http://www.w3.org/2000/svg">
<path d="M64 64.7275H295.905V60C295.905 26.8629 322.768 0 355.905 0H452C485.137 0 512 26.8629 512 60V279.818C512 315.165 483.346 343.818 448 343.818H64C28.6538 343.818 0 315.165 0 279.818V128.728C0 93.3813 28.6538 64.7275 64 64.7275Z" fill="#028D39"/>
<path d="M448 121.362C483.346 121.362 512 150.016 512 185.362V336.453C512 371.799 483.346 400.453 448 400.453H64C28.6538 400.453 0 371.799 0 336.453V116.635C0 83.4977 26.8629 56.6348 60 56.6348H156.095C189.232 56.6348 216.095 83.4977 216.095 116.635V121.362H448Z" fill="#DB0000"/>
<path d="M64 181.675H295.905V176.947C295.905 143.81 322.768 116.947 355.905 116.947H452C485.137 116.947 512 143.81 512 176.947V396.766C512 432.112 483.346 460.766 448 460.766H64C28.6538 460.766 0 432.112 0 396.766V245.675C0 210.329 28.6538 181.675 64 181.675Z" fill="#005DBE"/>
<path d="M448 235.334C483.346 235.334 512 263.988 512 299.334V429.129C512 464.475 483.346 493.129 448 493.129H64C28.6538 493.129 0 464.475 0 429.129V235.334H448ZM156.095 170.605C189.232 170.605 216.095 197.469 216.095 230.606V235.333L0 235.334V230.606C0 197.469 26.8629 170.605 60 170.605H156.095Z" fill="#FCCD4A"/>
</svg>
