<svg width="512" height="512" viewBox="0 0 512 512" fill="none" xmlns="http://www.w3.org/2000/svg">
<rect width="512" height="512" rx="64" fill="#4B87E4"/>
<path d="M406.768 150.707L346.334 382H304.885L266.283 243.414C265.334 240.039 264.279 236.031 263.119 231.391C261.959 226.75 260.799 222.004 259.639 217.152C258.584 212.301 257.635 207.871 256.791 203.863C256.053 199.75 255.525 196.586 255.209 194.371C254.998 196.586 254.523 199.697 253.785 203.705C253.047 207.713 252.15 212.143 251.096 216.994C250.146 221.74 249.092 226.486 247.932 231.232C246.771 235.873 245.717 239.986 244.768 243.572L206.799 382H165.508L105.232 150.707H143.359L176.74 286.287C177.795 290.611 178.85 295.305 179.904 300.367C181.064 305.324 182.119 310.334 183.068 315.396C184.123 320.459 185.072 325.416 185.916 330.268C186.76 335.014 187.445 339.338 187.973 343.24C188.5 339.232 189.186 334.803 190.029 329.951C190.873 324.994 191.77 319.984 192.719 314.922C193.773 309.754 194.828 304.797 195.883 300.051C197.043 295.305 198.203 291.033 199.363 287.236L237.016 150.707H274.035L312.479 287.711C313.639 291.613 314.746 295.99 315.801 300.842C316.961 305.693 318.068 310.65 319.123 315.713C320.178 320.775 321.127 325.68 321.971 330.426C322.814 335.172 323.5 339.443 324.027 343.24C324.766 338.072 325.715 332.166 326.875 325.521C328.035 318.877 329.354 312.127 330.83 305.271C332.307 298.416 333.783 292.088 335.26 286.287L368.482 150.707H406.768Z" fill="white"/>
</svg>
