<svg width="418" height="512" viewBox="0 0 418 512" fill="none" xmlns="http://www.w3.org/2000/svg">
<path d="M246.008 0.000732422L418 171.993V448.001C418 483.347 389.346 512.001 354 512.001H64C28.6539 512.001 0.000197916 483.347 0 448.001V64.0007C0 28.6545 28.6538 0.000732422 64 0.000732422H246.008Z" fill="#D09961"/>
<path d="M418 172H310C274.654 172 246 143.346 246 108V0L418 172Z" fill="#ECD6BF"/>
<path d="M98.3984 370.946C98.3984 367.852 99.4297 365.274 101.492 363.211C103.555 361.102 106.344 360.047 109.859 360.047C113.375 360.047 116.164 361.102 118.227 363.211C120.289 365.274 121.32 367.852 121.32 370.946C121.32 374.039 120.289 376.618 118.227 378.68C116.164 380.743 113.375 381.774 109.859 381.774C106.344 381.774 103.555 380.743 101.492 378.68C99.4297 376.618 98.3984 374.039 98.3984 370.946ZM203.164 363.985V381H142.273V363.985H203.164ZM202.391 290.649L151.203 381H136.859V368.555L188.609 278.625H202.391V290.649ZM195.43 278.625V295.711H136.438V278.625H195.43ZM237.406 278.625V381H216.945V278.625H237.406ZM289.859 344.93H268.906V327.844H289.859C292.812 327.844 295.203 327.188 297.031 325.875C298.859 324.563 300.195 322.758 301.039 320.461C301.883 318.118 302.305 315.493 302.305 312.586C302.305 309.633 301.883 306.868 301.039 304.289C300.195 301.711 298.859 299.649 297.031 298.102C295.203 296.508 292.812 295.711 289.859 295.711H275.586V381H254.984V278.625H289.859C296.75 278.625 302.656 280.078 307.578 282.985C312.547 285.891 316.367 289.899 319.039 295.008C321.711 300.071 323.047 305.883 323.047 312.446C323.047 319.055 321.711 324.797 319.039 329.672C316.367 334.5 312.547 338.25 307.578 340.922C302.656 343.594 296.75 344.93 289.859 344.93Z" fill="white"/>
</svg>
