<svg width="512" height="513" viewBox="0 0 512 513" fill="none" xmlns="http://www.w3.org/2000/svg">
<path d="M256.261 512H255.738L168.738 425H64C28.6538 425 0 396.346 0 361V64C0 28.6538 28.6538 0 64 0H448C483.346 0 512 28.6538 512 64V361C512 396.346 483.346 425 448 425H343.261L256.261 512Z" fill="#FFD83D"/>
<rect x="56" y="372" width="400" height="13" fill="#990000"/>
<path d="M256.355 326.207L131.381 197.466L380.796 196.949L256.355 326.207ZM306.089 197.104L206.089 197.311L205.888 100.207L305.888 100L306.089 197.104Z" fill="#990000"/>
</svg>
