<svg width="418" height="512" viewBox="0 0 418 512" fill="none" xmlns="http://www.w3.org/2000/svg">
<path d="M246.008 0.000976562L418 171.993V448.001C418 483.347 389.346 512.001 354 512.001H64C28.6539 512.001 0.000197916 483.347 0 448.001V64.001C0 28.6548 28.6538 0.000976562 64 0.000976562H246.008Z" fill="#DF564B"/>
<path d="M418 172H310C274.654 172 246 143.346 246 108V0L418 172Z" fill="#EEA9A3"/>
<path d="M289 268.89C289 313.636 227.688 350.473 208 434.869C189.438 348.785 127 313.636 127 268.89C127 224.143 163.265 187.869 208 187.869C252.735 187.869 289 224.143 289 268.89Z" fill="white"/>
</svg>
