<svg width="512" height="512" viewBox="0 0 512 512" fill="none" xmlns="http://www.w3.org/2000/svg">
<rect width="512" height="512" rx="64" fill="#FD7541"/>
<path d="M253.943 150.707C283.791 150.707 305.57 156.824 319.281 169.059C332.992 181.293 339.848 198.432 339.848 220.475C339.848 230.494 338.266 240.039 335.102 249.109C332.043 258.074 326.98 266.037 319.914 272.998C312.848 279.854 303.514 285.285 291.912 289.293C280.416 293.301 266.23 295.305 249.355 295.305H224.676V382H186.707V150.707H253.943ZM251.412 182.189H224.676V263.664H245.4C257.318 263.664 267.443 262.293 275.775 259.551C284.107 256.703 290.436 252.221 294.76 246.104C299.084 239.986 301.246 231.918 301.246 221.898C301.246 208.504 297.186 198.537 289.064 191.998C281.049 185.459 268.498 182.189 251.412 182.189Z" fill="white"/>
</svg>
