<svg width="418" height="512" viewBox="0 0 418 512" fill="none" xmlns="http://www.w3.org/2000/svg">
<path d="M246.008 0.000732422L418 171.993V448.001C418 483.347 389.346 512.001 354 512.001H64C28.6539 512.001 0.000197916 483.347 0 448.001V64.0007C0 28.6545 28.6538 0.000732422 64 0.000732422H246.008Z" fill="#D9385A"/>
<path d="M418 172H310C274.654 172 246 143.346 246 108V0L418 172Z" fill="#F0AFBC"/>
<path d="M69.7812 370.946C69.7812 367.852 70.8125 365.274 72.875 363.211C74.9375 361.102 77.7266 360.047 81.2422 360.047C84.7578 360.047 87.5469 361.102 89.6094 363.211C91.6719 365.274 92.7031 367.852 92.7031 370.946C92.7031 374.039 91.6719 376.618 89.6094 378.68C87.5469 380.743 84.7578 381.774 81.2422 381.774C77.7266 381.774 74.9375 380.743 72.875 378.68C70.8125 376.618 69.7812 374.039 69.7812 370.946ZM154.367 354.071C154.367 352.243 154.203 350.578 153.875 349.078C153.547 347.578 152.844 346.196 151.766 344.93C150.734 343.664 149.211 342.399 147.195 341.133C145.227 339.868 142.648 338.555 139.461 337.196C135.664 335.602 131.984 333.914 128.422 332.133C124.859 330.305 121.648 328.196 118.789 325.805C115.93 323.414 113.656 320.602 111.969 317.368C110.328 314.086 109.508 310.243 109.508 305.836C109.508 301.524 110.281 297.61 111.828 294.094C113.422 290.578 115.672 287.578 118.578 285.094C121.484 282.563 124.883 280.618 128.773 279.258C132.711 277.899 137.094 277.219 141.922 277.219C148.484 277.219 154.156 278.578 158.938 281.297C163.766 284.016 167.492 287.743 170.117 292.477C172.789 297.211 174.125 302.649 174.125 308.789H153.594C153.594 305.883 153.172 303.328 152.328 301.125C151.531 298.875 150.242 297.118 148.461 295.852C146.68 294.586 144.383 293.953 141.57 293.953C138.945 293.953 136.766 294.493 135.031 295.571C133.344 296.602 132.078 298.032 131.234 299.86C130.438 301.641 130.039 303.657 130.039 305.907C130.039 307.594 130.438 309.118 131.234 310.477C132.078 311.789 133.227 312.985 134.68 314.063C136.133 315.094 137.844 316.102 139.812 317.086C141.828 318.071 144.031 319.032 146.422 319.969C151.062 321.797 155.164 323.813 158.727 326.016C162.289 328.172 165.266 330.61 167.656 333.328C170.047 336 171.852 339.024 173.07 342.399C174.289 345.774 174.898 349.618 174.898 353.93C174.898 358.196 174.148 362.086 172.648 365.602C171.195 369.071 169.062 372.071 166.25 374.602C163.438 377.086 160.039 379.008 156.055 380.368C152.117 381.727 147.711 382.407 142.836 382.407C138.102 382.407 133.625 381.75 129.406 380.438C125.188 379.078 121.461 377.039 118.227 374.321C115.039 371.555 112.531 368.063 110.703 363.844C108.875 359.578 107.961 354.539 107.961 348.727H128.562C128.562 351.821 128.867 354.469 129.477 356.672C130.086 358.828 131.023 360.563 132.289 361.875C133.555 363.141 135.102 364.102 136.93 364.758C138.805 365.368 140.938 365.672 143.328 365.672C146.047 365.672 148.203 365.157 149.797 364.125C151.438 363.094 152.609 361.711 153.312 359.977C154.016 358.243 154.367 356.274 154.367 354.071ZM209.703 365.672L226.086 278.625H236.914L240.148 292.125L222.57 381H210.828L209.703 365.672ZM204.078 278.625L217.297 365.883L215.047 381H202.109L183.758 278.625H204.078ZM252.031 365.532L265.18 278.625H285.43L267.219 381H254.211L252.031 365.532ZM243.172 278.625L259.695 366.164L258.359 381H246.617L229.109 291.985L232.414 278.625H243.172ZM317.422 278.625V381H296.82V278.625H317.422ZM349.484 322.149V339.164H312.219V322.149H349.484ZM353.422 278.625V295.711H312.219V278.625H353.422Z" fill="white"/>
</svg>
